<?xml version='1.0' encoding='UTF-8' standalone='no'?>
<!DOCTYPE score-partwise PUBLIC '-//Recordare//DTD MusicXML 3.0 Partwise//EN' 'http://www.musicxml.org/dtds/partwise.dtd'>
<score-partwise version='3.0'>
	<movement-title>20. Agnus redemit</movement-title>
	<identification>
		<rights>Copyright © </rights>
		<encoding>
			<software>Sibelius 6.2</software>
			<software>Dolet 6.6 for Sibelius</software>
			<encoding-date>2019-04-17</encoding-date>
			<supports element='accidental' type='no'/>
			<supports element='transpose' type='no'/>
			<supports attribute='new-page' element='print' type='yes' value='yes'/>
			<supports attribute='new-system' element='print' type='yes' value='yes'/>
		</encoding>
	</identification>
	<defaults>
		<scaling>
			<millimeters>4.2</millimeters>
			<tenths>40</tenths>
		</scaling>
		<page-layout>
			<page-height>2661</page-height>
			<page-width>2056</page-width>
			<page-margins type='odd'>
				<left-margin>142.8571</left-margin>
				<right-margin>142.8571</right-margin>
				<top-margin>190.4762</top-margin>
				<bottom-margin>142.8571</bottom-margin>
			</page-margins>
			<page-margins type='even'>
				<left-margin>142.8571</left-margin>
				<right-margin>142.8571</right-margin>
				<top-margin>190.4762</top-margin>
				<bottom-margin>142.8571</bottom-margin>
			</page-margins>
		</page-layout>
		<system-layout>
			<system-margins>
				<left-margin>21.875</left-margin>
				<right-margin>0</right-margin>
			</system-margins>
			<system-distance>200</system-distance>
			<top-system-distance>121.5625</top-system-distance>
		</system-layout>
		<?DoletSibelius StaffJustificationPercentage=50?>
		<appearance>
			<line-width type='beam'>5</line-width>
			<line-width type='heavy barline'>5</line-width>
			<line-width type='leger'>1.5625</line-width>
			<line-width type='light barline'>1.5625</line-width>
			<line-width type='slur middle'>2.1875</line-width>
			<line-width type='slur tip'>0.625</line-width>
			<line-width type='staff'>0.9375</line-width>
			<line-width type='stem'>0.9375</line-width>
			<line-width type='tie middle'>2.1875</line-width>
			<line-width type='tie tip'>0.625</line-width>
			<note-size type='grace'>60</note-size>
			<note-size type='cue'>75</note-size>
		</appearance>
		<music-font font-family='Opus,music'/>
		<word-font font-family='Times New Roman'/>
	</defaults>
	<part-list>
		<score-part id='P1'>
			<part-name print-object='no'>[Tenor]</part-name>
			<score-instrument id='P1-I1'>
				<instrument-name>Tenor</instrument-name>
				<instrument-abbreviation>T.</instrument-abbreviation>
				<instrument-sound>voice.tenor</instrument-sound>
				<ensemble/>
			</score-instrument>
			<midi-instrument id='P1-I1'>
				<volume>79</volume>
				<pan>32</pan>
			</midi-instrument>
		</score-part>
	</part-list>
<!--=========================================================-->
	<part id='P1'>
		<measure number='1'>
			<print>
				<system-layout>
					<system-margins>
						<left-margin>21.875</left-margin>
						<right-margin>0</right-margin>
					</system-margins>
					<top-system-distance>363.4375</top-system-distance>
				</system-layout>
				<staff-layout>
					<?DoletSibelius ExtraSpacesAbove=3?>
					<?DoletSibelius ExtraSpacesBelow=3?>
				</staff-layout>
			</print>
			<attributes>
				<divisions>768</divisions>
				<key>
					<fifths>0</fifths>
					<mode>major</mode>
				</key>
				<time>
					<beats>15</beats>
					<beat-type>4</beat-type>
				</time>
				<clef>
					<sign>G</sign>
					<line>2</line>
					<clef-octave-change>-1</clef-octave-change>
				</clef>
			</attributes>
			<direction>
				<direction-type>
					<words default-y='108' relative-x='-13' font-style='italic'>Analecta hymnica</words>
					<words font-style='normal'>, vol. 54, no. 7, pp. 12-14.
Note: The text for </words>
					<words font-style='italic'>Agnus redemit </words>
					<words font-style='normal'>is the text of </words>
					<words font-style='italic'>Victimae paschali laudes</words>
					<words font-style='normal'>, from </words>
					<words font-style='italic'>Victimae</words>
					<words font-style='normal'>&apos;s second stanza to the end.</words>
				</direction-type>
			</direction>
			<note>
				<pitch>
					<step>D</step>
					<octave>3</octave>
				</pitch>
				<duration>768</duration>
				<voice>1</voice>
				<type size='full'>quarter</type>
				<notations>
					<slur type='start' number='1'/>
				</notations>
				<lyric number='1' name='verse' default-y='-80'>
					<syllabic>begin</syllabic>
					<text>Al</text>
					<extend/>
				</lyric>
			</note>
			<note>
				<pitch>
					<step>C</step>
					<octave>3</octave>
				</pitch>
				<duration>768</duration>
				<voice>1</voice>
				<type>quarter</type>
				<notations>
					<slur type='stop' number='1'/>
				</notations>
			</note>
			<direction placement='above'>
				<direction-type>
					<words>268r</words>
				</direction-type>
			</direction>
			<note>
				<pitch>
					<step>D</step>
					<octave>3</octave>
				</pitch>
				<duration>768</duration>
				<voice>1</voice>
				<type size='full'>quarter</type>
				<notations>
					<slur type='start' number='1'/>
				</notations>
				<lyric number='1' name='verse' default-y='-80'>
					<syllabic>middle</syllabic>
					<text>le</text>
					<extend/>
				</lyric>
			</note>
			<note>
				<pitch>
					<step>F</step>
					<octave>3</octave>
				</pitch>
				<duration>768</duration>
				<voice>1</voice>
				<type size='full'>quarter</type>
				<notations>
					<slur type='stop' number='1'/>
				</notations>
			</note>
			<note>
				<pitch>
					<step>G</step>
					<octave>3</octave>
				</pitch>
				<duration>768</duration>
				<voice>1</voice>
				<type size='full'>quarter</type>
				<notations>
					<slur type='start' number='1' line-type='dotted'/>
				</notations>
			</note>
			<note>
				<pitch>
					<step>F</step>
					<octave>3</octave>
				</pitch>
				<duration>768</duration>
				<voice>1</voice>
				<type size='full'>quarter</type>
			</note>
			<note>
				<pitch>
					<step>E</step>
					<octave>3</octave>
				</pitch>
				<duration>768</duration>
				<voice>1</voice>
				<type size='full'>quarter</type>
			</note>
			<note>
				<pitch>
					<step>D</step>
					<octave>3</octave>
				</pitch>
				<duration>768</duration>
				<voice>1</voice>
				<type size='full'>quarter</type>
				<notations>
					<slur type='stop' number='1'/>
				</notations>
			</note>
			<note>
				<pitch>
					<step>A</step>
					<octave>3</octave>
				</pitch>
				<duration>768</duration>
				<voice>1</voice>
				<type size='full'>quarter</type>
				<notations>
					<slur type='start' number='1' line-type='dotted'/>
					<slur type='start' number='2'/>
				</notations>
				<lyric number='1' name='verse' default-y='-80'>
					<syllabic>middle</syllabic>
					<text>lu</text>
					<extend/>
				</lyric>
			</note>
			<note>
				<pitch>
					<step>G</step>
					<octave>3</octave>
				</pitch>
				<duration>768</duration>
				<voice>1</voice>
				<type size='full'>quarter</type>
			</note>
			<note>
				<pitch>
					<step>F</step>
					<octave>3</octave>
				</pitch>
				<duration>768</duration>
				<voice>1</voice>
				<type size='full'>quarter</type>
				<notations>
					<slur type='stop' number='1'/>
				</notations>
			</note>
			<note>
				<pitch>
					<step>G</step>
					<octave>3</octave>
				</pitch>
				<duration>768</duration>
				<voice>1</voice>
				<type size='full'>quarter</type>
				<notations>
					<slur type='start' number='1'/>
				</notations>
			</note>
			<note>
				<pitch>
					<step>D</step>
					<octave>3</octave>
				</pitch>
				<duration>768</duration>
				<voice>1</voice>
				<type>quarter</type>
				<notations>
					<slur type='stop' number='1'/>
					<slur type='stop' number='2'/>
				</notations>
			</note>
			<note>
				<pitch>
					<step>E</step>
					<octave>3</octave>
				</pitch>
				<duration>768</duration>
				<voice>1</voice>
				<type size='full'>quarter</type>
				<notations>
					<slur type='start' number='1'/>
				</notations>
				<lyric number='1' name='verse' default-y='-80'>
					<syllabic>end</syllabic>
					<text>ya.</text>
					<extend/>
				</lyric>
			</note>
			<note>
				<pitch>
					<step>D</step>
					<octave>3</octave>
				</pitch>
				<duration>768</duration>
				<voice>1</voice>
				<type size='full'>quarter</type>
				<notations>
					<slur type='stop' number='1'/>
				</notations>
			</note>
		</measure>
<!--=========================================================-->
		<measure number='2'>
			<print new-system='yes'/>
			<attributes>
				<time>
					<beats>24</beats>
					<beat-type>4</beat-type>
				</time>
			</attributes>
			<note>
				<pitch>
					<step>A</step>
					<octave>3</octave>
				</pitch>
				<duration>768</duration>
				<voice>1</voice>
				<type size='full'>quarter</type>
				<lyric number='1' name='verse' default-y='-80'>
					<syllabic>begin</syllabic>
					<text>Ag</text>
				</lyric>
			</note>
			<note>
				<pitch>
					<step>C</step>
					<octave>4</octave>
				</pitch>
				<duration>768</duration>
				<voice>1</voice>
				<type size='full'>quarter</type>
				<lyric number='1' name='verse' default-y='-80'>
					<syllabic>end</syllabic>
					<text>nus</text>
				</lyric>
			</note>
			<note>
				<pitch>
					<step>D</step>
					<octave>4</octave>
				</pitch>
				<duration>768</duration>
				<voice>1</voice>
				<type size='full'>quarter</type>
				<lyric number='1' name='verse' default-y='-80'>
					<syllabic>begin</syllabic>
					<text>re</text>
				</lyric>
			</note>
			<note>
				<pitch>
					<step>A</step>
					<octave>3</octave>
				</pitch>
				<duration>768</duration>
				<voice>1</voice>
				<type size='full'>quarter</type>
				<lyric number='1' name='verse' default-y='-80'>
					<syllabic>middle</syllabic>
					<text>de</text>
				</lyric>
			</note>
			<note>
				<pitch>
					<step>G</step>
					<octave>3</octave>
				</pitch>
				<duration>768</duration>
				<voice>1</voice>
				<type size='full'>quarter</type>
				<lyric number='1' name='verse' default-y='-80'>
					<syllabic>end</syllabic>
					<text>mit</text>
				</lyric>
			</note>
			<note>
				<pitch>
					<step>A</step>
					<octave>3</octave>
				</pitch>
				<duration>768</duration>
				<voice>1</voice>
				<type size='full'>quarter</type>
				<lyric number='1' name='verse' default-y='-80'>
					<syllabic>begin</syllabic>
					<text>o</text>
				</lyric>
			</note>
			<note>
				<pitch>
					<step>A</step>
					<octave>3</octave>
				</pitch>
				<duration>768</duration>
				<voice>1</voice>
				<type size='full'>quarter</type>
				<lyric number='1' name='verse' default-y='-80'>
					<syllabic>end</syllabic>
					<text>ues</text>
				</lyric>
			</note>
			<note>
				<pitch>
					<step>A</step>
					<octave>3</octave>
				</pitch>
				<duration>768</duration>
				<voice>1</voice>
				<type size='full'>quarter</type>
				<lyric number='1' name='verse' default-y='-80'>
					<syllabic>begin</syllabic>
					<text>Chri</text>
					<extend/>
				</lyric>
			</note>
			<note>
				<pitch>
					<step>G</step>
					<octave>3</octave>
				</pitch>
				<duration>768</duration>
				<voice>1</voice>
				<type size='full'>quarter</type>
				<lyric number='1' name='verse' default-y='-80'>
					<syllabic>end</syllabic>
					<text>stus</text>
				</lyric>
			</note>
			<note>
				<pitch>
					<step>A</step>
					<octave>3</octave>
				</pitch>
				<duration>768</duration>
				<voice>1</voice>
				<type size='full'>quarter</type>
				<lyric number='1' name='verse' default-y='-80'>
					<syllabic>begin</syllabic>
					<text>in</text>
				</lyric>
			</note>
			<note>
				<pitch>
					<step>G</step>
					<octave>3</octave>
				</pitch>
				<duration>768</duration>
				<voice>1</voice>
				<type size='full'>quarter</type>
				<lyric number='1' name='verse' default-y='-80'>
					<syllabic>middle</syllabic>
					<text>no</text>
				</lyric>
			</note>
			<note>
				<pitch>
					<step>F</step>
					<octave>3</octave>
				</pitch>
				<duration>768</duration>
				<voice>1</voice>
				<type size='full'>quarter</type>
				<lyric number='1' name='verse' default-y='-80'>
					<syllabic>end</syllabic>
					<text>cens</text>
				</lyric>
			</note>
			<note>
				<pitch>
					<step>E</step>
					<octave>3</octave>
				</pitch>
				<duration>768</duration>
				<voice>1</voice>
				<type size='full'>quarter</type>
				<lyric number='1' name='verse' default-y='-80'>
					<syllabic>begin</syllabic>
					<text>pa</text>
				</lyric>
			</note>
			<note>
				<pitch>
					<step>D</step>
					<octave>3</octave>
				</pitch>
				<duration>768</duration>
				<voice>1</voice>
				<type size='full'>quarter</type>
				<lyric number='1' name='verse' default-y='-80'>
					<syllabic>end</syllabic>
					<text>tri</text>
				</lyric>
			</note>
			<note>
				<pitch>
					<step>E</step>
					<octave>3</octave>
				</pitch>
				<duration>768</duration>
				<voice>1</voice>
				<type size='full'>quarter</type>
				<lyric number='1' name='verse' default-y='-80'>
					<syllabic>begin</syllabic>
					<text>re</text>
				</lyric>
			</note>
			<note>
				<pitch>
					<step>G</step>
					<octave>3</octave>
				</pitch>
				<duration>768</duration>
				<voice>1</voice>
				<type size='full'>quarter</type>
				<lyric number='1' name='verse' default-y='-80'>
					<syllabic>middle</syllabic>
					<text>con</text>
				</lyric>
			</note>
			<note>
				<pitch>
					<step>D</step>
					<octave>3</octave>
				</pitch>
				<duration>768</duration>
				<voice>1</voice>
				<type size='full'>quarter</type>
				<lyric number='1' name='verse' default-y='-80'>
					<syllabic>middle</syllabic>
					<text>ci</text>
				</lyric>
			</note>
			<note>
				<pitch>
					<step>E</step>
					<octave>3</octave>
				</pitch>
				<duration>768</duration>
				<voice>1</voice>
				<type size='full'>quarter</type>
				<lyric number='1' name='verse' default-y='-80'>
					<syllabic>middle</syllabic>
					<text>li</text>
				</lyric>
			</note>
			<note>
				<pitch>
					<step>D</step>
					<octave>3</octave>
				</pitch>
				<duration>768</duration>
				<voice>1</voice>
				<type size='full'>quarter</type>
				<lyric number='1' name='verse' default-y='-80'>
					<syllabic>middle</syllabic>
					<text>a</text>
				</lyric>
			</note>
			<note>
				<pitch>
					<step>C</step>
					<octave>3</octave>
				</pitch>
				<duration>768</duration>
				<voice>1</voice>
				<type size='full'>quarter</type>
				<lyric number='1' name='verse' default-y='-80'>
					<syllabic>end</syllabic>
					<text>uit</text>
				</lyric>
			</note>
			<note>
				<pitch>
					<step>E</step>
					<octave>3</octave>
				</pitch>
				<duration>768</duration>
				<voice>1</voice>
				<type size='full'>quarter</type>
				<lyric number='1' name='verse' default-y='-80'>
					<syllabic>begin</syllabic>
					<text>pec</text>
				</lyric>
			</note>
			<note>
				<pitch>
					<step>F</step>
					<octave>3</octave>
				</pitch>
				<duration>768</duration>
				<voice>1</voice>
				<type size='full'>quarter</type>
				<lyric number='1' name='verse' default-y='-80'>
					<syllabic>middle</syllabic>
					<text>ca</text>
				</lyric>
			</note>
			<note>
				<pitch>
					<step>E</step>
					<octave>3</octave>
				</pitch>
				<duration>768</duration>
				<voice>1</voice>
				<type size='full'>quarter</type>
				<lyric number='1' name='verse' default-y='-80'>
					<syllabic>middle</syllabic>
					<text>to</text>
				</lyric>
			</note>
			<note>
				<pitch>
					<step>D</step>
					<octave>3</octave>
				</pitch>
				<duration>768</duration>
				<voice>1</voice>
				<type size='full'>quarter</type>
				<lyric number='1' name='verse' default-y='-80'>
					<syllabic>end</syllabic>
					<text>res.</text>
				</lyric>
			</note>
		</measure>
<!--=========================================================-->
		<measure number='3'>
			<note>
				<pitch>
					<step>A</step>
					<octave>3</octave>
				</pitch>
				<duration>768</duration>
				<voice>1</voice>
				<type size='full'>quarter</type>
				<lyric number='1' name='verse' default-y='-80'>
					<syllabic>single</syllabic>
					<text>Mors</text>
				</lyric>
			</note>
			<note>
				<pitch>
					<step>C</step>
					<octave>4</octave>
				</pitch>
				<duration>768</duration>
				<voice>1</voice>
				<type size='full'>quarter</type>
				<lyric number='1' name='verse' default-y='-80'>
					<syllabic>single</syllabic>
					<text>et</text>
				</lyric>
			</note>
			<note>
				<pitch>
					<step>D</step>
					<octave>4</octave>
				</pitch>
				<duration>768</duration>
				<voice>1</voice>
				<type size='full'>quarter</type>
				<lyric number='1' name='verse' default-y='-80'>
					<syllabic>begin</syllabic>
					<text>ui</text>
				</lyric>
			</note>
			<note>
				<pitch>
					<step>A</step>
					<octave>3</octave>
				</pitch>
				<duration>768</duration>
				<voice>1</voice>
				<type size='full'>quarter</type>
				<lyric number='1' name='verse' default-y='-80'>
					<syllabic>end</syllabic>
					<text>ta</text>
				</lyric>
			</note>
			<note>
				<pitch>
					<step>G</step>
					<octave>3</octave>
				</pitch>
				<duration>768</duration>
				<voice>1</voice>
				<type size='full'>quarter</type>
				<lyric number='1' name='verse' default-y='-80'>
					<syllabic>begin</syllabic>
					<text>du</text>
				</lyric>
			</note>
			<note>
				<pitch>
					<step>A</step>
					<octave>3</octave>
				</pitch>
				<duration>768</duration>
				<voice>1</voice>
				<type size='full'>quarter</type>
				<lyric number='1' name='verse' default-y='-80'>
					<syllabic>middle</syllabic>
					<text>el</text>
				</lyric>
			</note>
			<note>
				<pitch>
					<step>A</step>
					<octave>3</octave>
				</pitch>
				<duration>768</duration>
				<voice>1</voice>
				<type size='full'>quarter</type>
				<lyric number='1' name='verse' default-y='-80'>
					<syllabic>end</syllabic>
					<text>lo</text>
				</lyric>
			</note>
			<note>
				<pitch>
					<step>A</step>
					<octave>3</octave>
				</pitch>
				<duration>768</duration>
				<voice>1</voice>
				<type size='full'>quarter</type>
				<lyric number='1' name='verse' default-y='-80'>
					<syllabic>single</syllabic>
					<text>con</text>
				</lyric>
			</note>
			<note>
				<pitch>
					<step>G</step>
					<octave>3</octave>
				</pitch>
				<duration>768</duration>
				<voice>1</voice>
				<type size='full'>quarter</type>
				<lyric number='1' name='verse' default-y='-80'>
					<syllabic>begin</syllabic>
					<text>fli</text>
				</lyric>
			</note>
			<note>
				<pitch>
					<step>A</step>
					<octave>3</octave>
				</pitch>
				<duration>768</duration>
				<voice>1</voice>
				<type size='full'>quarter</type>
				<lyric number='1' name='verse' default-y='-80'>
					<syllabic>middle</syllabic>
					<text>xe</text>
				</lyric>
			</note>
			<note>
				<pitch>
					<step>G</step>
					<octave>3</octave>
				</pitch>
				<duration>768</duration>
				<voice>1</voice>
				<type size='full'>quarter</type>
				<lyric number='1' name='verse' default-y='-80'>
					<syllabic>end</syllabic>
					<text>re</text>
				</lyric>
			</note>
			<note>
				<pitch>
					<step>F</step>
					<octave>3</octave>
				</pitch>
				<duration>768</duration>
				<voice>1</voice>
				<type size='full'>quarter</type>
				<lyric number='1' name='verse' default-y='-80'>
					<syllabic>begin</syllabic>
					<text>mi</text>
				</lyric>
			</note>
			<note>
				<pitch>
					<step>E</step>
					<octave>3</octave>
				</pitch>
				<duration>768</duration>
				<voice>1</voice>
				<type size='full'>quarter</type>
				<lyric number='1' name='verse' default-y='-80'>
					<syllabic>middle</syllabic>
					<text>ran</text>
				</lyric>
			</note>
			<note>
				<pitch>
					<step>D</step>
					<octave>3</octave>
				</pitch>
				<duration>768</duration>
				<voice>1</voice>
				<type size='full'>quarter</type>
				<lyric number='1' name='verse' default-y='-80'>
					<syllabic>end</syllabic>
					<text>do</text>
				</lyric>
			</note>
			<note>
				<pitch>
					<step>E</step>
					<octave>3</octave>
				</pitch>
				<duration>768</duration>
				<voice>1</voice>
				<type size='full'>quarter</type>
				<lyric number='1' name='verse' default-y='-80'>
					<syllabic>single</syllabic>
					<text>dux</text>
				</lyric>
			</note>
			<note>
				<pitch>
					<step>G</step>
					<octave>3</octave>
				</pitch>
				<duration>768</duration>
				<voice>1</voice>
				<type size='full'>quarter</type>
				<lyric number='1' name='verse' default-y='-80'>
					<syllabic>begin</syllabic>
					<text>ui</text>
				</lyric>
			</note>
			<note>
				<pitch>
					<step>D</step>
					<octave>3</octave>
				</pitch>
				<duration>768</duration>
				<voice>1</voice>
				<type size='full'>quarter</type>
				<lyric number='1' name='verse' default-y='-80'>
					<syllabic>end</syllabic>
					<text>te</text>
				</lyric>
			</note>
			<note>
				<pitch>
					<step>E</step>
					<octave>3</octave>
				</pitch>
				<duration>768</duration>
				<voice>1</voice>
				<type size='full'>quarter</type>
				<lyric number='1' name='verse' default-y='-80'>
					<syllabic>begin</syllabic>
					<text>mor</text>
				</lyric>
			</note>
			<note>
				<pitch>
					<step>D</step>
					<octave>3</octave>
				</pitch>
				<duration>768</duration>
				<voice>1</voice>
				<type size='full'>quarter</type>
				<lyric number='1' name='verse' default-y='-80'>
					<syllabic>middle</syllabic>
					<text>tu</text>
				</lyric>
			</note>
			<note>
				<pitch>
					<step>C</step>
					<octave>3</octave>
				</pitch>
				<duration>768</duration>
				<voice>1</voice>
				<type size='full'>quarter</type>
				<lyric number='1' name='verse' default-y='-80'>
					<syllabic>end</syllabic>
					<text>us</text>
				</lyric>
			</note>
			<note>
				<pitch>
					<step>E</step>
					<octave>3</octave>
				</pitch>
				<duration>768</duration>
				<voice>1</voice>
				<type size='full'>quarter</type>
				<lyric number='1' name='verse' default-y='-80'>
					<syllabic>begin</syllabic>
					<text>reg</text>
				</lyric>
			</note>
			<note>
				<pitch>
					<step>F</step>
					<octave>3</octave>
				</pitch>
				<duration>768</duration>
				<voice>1</voice>
				<type size='full'>quarter</type>
				<lyric number='1' name='verse' default-y='-80'>
					<syllabic>end</syllabic>
					<text>nat</text>
				</lyric>
			</note>
			<note>
				<pitch>
					<step>E</step>
					<octave>3</octave>
				</pitch>
				<duration>768</duration>
				<voice>1</voice>
				<type size='full'>quarter</type>
				<lyric number='1' name='verse' default-y='-80'>
					<syllabic>begin</syllabic>
					<text>ui</text>
				</lyric>
			</note>
			<note>
				<pitch>
					<step>D</step>
					<octave>3</octave>
				</pitch>
				<duration>768</duration>
				<voice>1</voice>
				<type size='full'>quarter</type>
				<lyric number='1' name='verse' default-y='-80'>
					<syllabic>end</syllabic>
					<text>uus.</text>
				</lyric>
			</note>
		</measure>
<!--=========================================================-->
		<measure number='4'>
			<print new-system='yes'/>
			<attributes>
				<time>
					<beats>15</beats>
					<beat-type>4</beat-type>
				</time>
			</attributes>
			<note>
				<pitch>
					<step>A</step>
					<octave>2</octave>
				</pitch>
				<duration>768</duration>
				<voice>1</voice>
				<type size='full'>quarter</type>
				<lyric number='1' name='verse' default-y='-80'>
					<syllabic>single</syllabic>
					<text>Dic</text>
				</lyric>
			</note>
			<note>
				<pitch>
					<step>C</step>
					<octave>3</octave>
				</pitch>
				<duration>768</duration>
				<voice>1</voice>
				<type size='full'>quarter</type>
				<lyric number='1' name='verse' default-y='-80'>
					<syllabic>begin</syllabic>
					<text>no</text>
				</lyric>
			</note>
			<note>
				<pitch>
					<step>D</step>
					<octave>3</octave>
				</pitch>
				<duration>768</duration>
				<voice>1</voice>
				<type size='full'>quarter</type>
				<lyric number='1' name='verse' default-y='-80'>
					<syllabic>end</syllabic>
					<text>bis</text>
				</lyric>
			</note>
			<note>
				<pitch>
					<step>F</step>
					<octave>3</octave>
				</pitch>
				<duration>768</duration>
				<voice>1</voice>
				<type size='full'>quarter</type>
				<lyric number='1' name='verse' default-y='-80'>
					<syllabic>begin</syllabic>
					<text>ma</text>
				</lyric>
			</note>
			<note>
				<pitch>
					<step>G</step>
					<octave>3</octave>
				</pitch>
				<duration>768</duration>
				<voice>1</voice>
				<type size='full'>quarter</type>
				<notations>
					<slur type='start' number='1'/>
				</notations>
				<lyric number='1' name='verse' default-y='-80'>
					<syllabic>middle</syllabic>
					<text>ri</text>
					<extend/>
				</lyric>
			</note>
			<note>
				<pitch>
					<step>F</step>
					<octave>3</octave>
				</pitch>
				<duration>768</duration>
				<voice>1</voice>
				<type size='full'>quarter</type>
				<notations>
					<slur type='stop' number='1'/>
				</notations>
			</note>
			<note>
				<pitch>
					<step>E</step>
					<octave>3</octave>
				</pitch>
				<duration>768</duration>
				<voice>1</voice>
				<type size='full'>quarter</type>
				<notations>
					<slur type='start' number='1'/>
				</notations>
				<lyric number='1' name='verse' default-y='-80'>
					<syllabic>end</syllabic>
					<text>a</text>
					<extend/>
				</lyric>
			</note>
			<note>
				<pitch>
					<step>D</step>
					<octave>3</octave>
				</pitch>
				<duration>768</duration>
				<voice>1</voice>
				<type size='full'>quarter</type>
				<notations>
					<slur type='stop' number='1'/>
				</notations>
			</note>
			<note>
				<pitch>
					<step>C</step>
					<octave>3</octave>
				</pitch>
				<duration>768</duration>
				<voice>1</voice>
				<type size='full'>quarter</type>
				<lyric number='1' name='verse' default-y='-80'>
					<syllabic>single</syllabic>
					<text>quid</text>
				</lyric>
			</note>
			<note>
				<pitch>
					<step>F</step>
					<octave>3</octave>
				</pitch>
				<duration>768</duration>
				<voice>1</voice>
				<type size='full'>quarter</type>
				<lyric number='1' name='verse' default-y='-80'>
					<syllabic>begin</syllabic>
					<text>ui</text>
				</lyric>
			</note>
			<note>
				<pitch>
					<step>E</step>
					<octave>3</octave>
				</pitch>
				<duration>768</duration>
				<voice>1</voice>
				<type size='full'>quarter</type>
				<lyric number='1' name='verse' default-y='-80'>
					<syllabic>middle</syllabic>
					<text>di</text>
				</lyric>
			</note>
			<note>
				<pitch>
					<step>D</step>
					<octave>3</octave>
				</pitch>
				<duration>768</duration>
				<voice>1</voice>
				<type size='full'>quarter</type>
				<lyric number='1' name='verse' default-y='-80'>
					<syllabic>end</syllabic>
					<text>sti</text>
				</lyric>
			</note>
			<note>
				<pitch>
					<step>E</step>
					<octave>3</octave>
				</pitch>
				<duration>768</duration>
				<voice>1</voice>
				<type size='full'>quarter</type>
				<lyric number='1' name='verse' default-y='-80'>
					<syllabic>single</syllabic>
					<text>in</text>
				</lyric>
			</note>
			<note>
				<pitch>
					<step>C</step>
					<octave>3</octave>
				</pitch>
				<duration>768</duration>
				<voice>1</voice>
				<type size='full'>quarter</type>
				<lyric number='1' name='verse' default-y='-80'>
					<syllabic>begin</syllabic>
					<text>ui</text>
				</lyric>
			</note>
			<note>
				<pitch>
					<step>D</step>
					<octave>3</octave>
				</pitch>
				<duration>768</duration>
				<voice>1</voice>
				<type size='full'>quarter</type>
				<lyric number='1' name='verse' default-y='-80'>
					<syllabic>end</syllabic>
					<text>a.</text>
				</lyric>
			</note>
		</measure>
<!--=========================================================-->
		<measure number='5'>
			<attributes>
				<time>
					<beats>23</beats>
					<beat-type>4</beat-type>
				</time>
			</attributes>
			<note>
				<pitch>
					<step>F</step>
					<octave>3</octave>
				</pitch>
				<duration>768</duration>
				<voice>1</voice>
				<type size='full'>quarter</type>
				<lyric number='1' name='verse' default-y='-80'>
					<syllabic>begin</syllabic>
					<text>Se</text>
				</lyric>
			</note>
			<note>
				<pitch>
					<step>A</step>
					<octave>3</octave>
				</pitch>
				<duration>768</duration>
				<voice>1</voice>
				<type size='full'>quarter</type>
				<lyric number='1' name='verse' default-y='-80'>
					<syllabic>middle</syllabic>
					<text>pul</text>
				</lyric>
			</note>
			<note>
				<pitch>
					<step>G</step>
					<octave>3</octave>
				</pitch>
				<duration>768</duration>
				<voice>1</voice>
				<type size='full'>quarter</type>
				<lyric number='1' name='verse' default-y='-80'>
					<syllabic>end</syllabic>
					<text>chrum</text>
				</lyric>
			</note>
			<note>
				<pitch>
					<step>A</step>
					<octave>3</octave>
				</pitch>
				<duration>768</duration>
				<voice>1</voice>
				<type size='full'>quarter</type>
				<lyric number='1' name='verse' default-y='-80'>
					<syllabic>begin</syllabic>
					<text>Chri</text>
				</lyric>
			</note>
			<note>
				<pitch>
					<step>F</step>
					<octave>3</octave>
				</pitch>
				<duration>768</duration>
				<voice>1</voice>
				<type size='full'>quarter</type>
				<lyric number='1' name='verse' default-y='-80'>
					<syllabic>end</syllabic>
					<text>sti</text>
				</lyric>
			</note>
			<note>
				<pitch>
					<step>G</step>
					<octave>3</octave>
				</pitch>
				<duration>768</duration>
				<voice>1</voice>
				<type size='full'>quarter</type>
				<lyric number='1' name='verse' default-y='-80'>
					<syllabic>begin</syllabic>
					<text>ui</text>
				</lyric>
			</note>
			<note>
				<pitch>
					<step>F</step>
					<octave>3</octave>
				</pitch>
				<duration>768</duration>
				<voice>1</voice>
				<type size='full'>quarter</type>
				<notations>
					<slur type='start' number='1'/>
				</notations>
				<lyric number='1' name='verse' default-y='-80'>
					<syllabic>middle</syllabic>
					<text>uen</text>
					<extend/>
				</lyric>
			</note>
			<note>
				<pitch>
					<step>E</step>
					<octave>3</octave>
				</pitch>
				<duration>768</duration>
				<voice>1</voice>
				<type size='full'>quarter</type>
				<notations>
					<slur type='start' number='2'/>
				</notations>
			</note>
			<note>
				<pitch>
					<step>D</step>
					<octave>3</octave>
				</pitch>
				<duration>768</duration>
				<voice>1</voice>
				<type>quarter</type>
				<notations>
					<slur type='stop' number='1'/>
					<slur type='stop' number='2'/>
				</notations>
			</note>
			<note>
				<pitch>
					<step>D</step>
					<octave>3</octave>
				</pitch>
				<duration>768</duration>
				<voice>1</voice>
				<type size='full'>quarter</type>
				<lyric number='1' name='verse' default-y='-80'>
					<syllabic>end</syllabic>
					<text>tis</text>
				</lyric>
			</note>
			<note>
				<pitch>
					<step>C</step>
					<octave>3</octave>
				</pitch>
				<duration>768</duration>
				<voice>1</voice>
				<type size='full'>quarter</type>
				<lyric number='1' name='verse' default-y='-80'>
					<syllabic>single</syllabic>
					<text>et</text>
				</lyric>
			</note>
			<note>
				<pitch>
					<step>G</step>
					<octave>3</octave>
				</pitch>
				<duration>768</duration>
				<voice>1</voice>
				<type size='full'>quarter</type>
				<lyric number='1' name='verse' default-y='-80'>
					<syllabic>begin</syllabic>
					<text>glo</text>
				</lyric>
			</note>
			<note>
				<pitch>
					<step>F</step>
					<octave>3</octave>
				</pitch>
				<duration>768</duration>
				<voice>1</voice>
				<type size='full'>quarter</type>
				<lyric number='1' name='verse' default-y='-80'>
					<syllabic>middle</syllabic>
					<text>ri</text>
				</lyric>
			</note>
			<note>
				<pitch>
					<step>G</step>
					<octave>3</octave>
				</pitch>
				<duration>768</duration>
				<voice>1</voice>
				<type size='full'>quarter</type>
				<lyric number='1' name='verse' default-y='-80'>
					<syllabic>end</syllabic>
					<text>am</text>
				</lyric>
			</note>
			<note>
				<pitch>
					<step>A</step>
					<octave>3</octave>
				</pitch>
				<duration>768</duration>
				<voice>1</voice>
				<type size='full'>quarter</type>
				<lyric number='1' name='verse' default-y='-80'>
					<syllabic>begin</syllabic>
					<text>ui</text>
				</lyric>
			</note>
			<note>
				<pitch>
					<step>G</step>
					<octave>3</octave>
				</pitch>
				<duration>768</duration>
				<voice>1</voice>
				<type size='full'>quarter</type>
				<lyric number='1' name='verse' default-y='-80'>
					<syllabic>end</syllabic>
					<text>di</text>
				</lyric>
			</note>
			<note>
				<pitch>
					<step>F</step>
					<octave>3</octave>
				</pitch>
				<duration>768</duration>
				<voice>1</voice>
				<type size='full'>quarter</type>
				<lyric number='1' name='verse' default-y='-80'>
					<syllabic>begin</syllabic>
					<text>re</text>
				</lyric>
			</note>
			<note>
				<pitch>
					<step>G</step>
					<octave>3</octave>
				</pitch>
				<duration>768</duration>
				<voice>1</voice>
				<type size='full'>quarter</type>
				<notations>
					<slur type='start' number='1'/>
				</notations>
				<lyric number='1' name='verse' default-y='-80'>
					<syllabic>middle</syllabic>
					<text>sur</text>
					<extend/>
				</lyric>
			</note>
			<note>
				<pitch>
					<step>F</step>
					<octave>3</octave>
				</pitch>
				<duration>768</duration>
				<voice>1</voice>
				<type>quarter</type>
				<notations>
					<slur type='stop' number='1'/>
				</notations>
			</note>
			<note>
				<pitch>
					<step>F</step>
					<octave>3</octave>
				</pitch>
				<duration>768</duration>
				<voice>1</voice>
				<type size='full'>quarter</type>
				<notations>
					<slur type='start' number='1'/>
				</notations>
				<lyric number='1' name='verse' default-y='-80'>
					<syllabic>middle</syllabic>
					<text>gen</text>
					<extend/>
				</lyric>
			</note>
			<note>
				<pitch>
					<step>E</step>
					<octave>3</octave>
				</pitch>
				<duration>768</duration>
				<voice>1</voice>
				<type size='full'>quarter</type>
				<notations>
					<slur type='start' number='2'/>
				</notations>
			</note>
			<note>
				<pitch>
					<step>D</step>
					<octave>3</octave>
				</pitch>
				<duration>768</duration>
				<voice>1</voice>
				<type>quarter</type>
				<notations>
					<slur type='stop' number='1'/>
					<slur type='stop' number='2'/>
				</notations>
			</note>
			<note>
				<pitch>
					<step>D</step>
					<octave>3</octave>
				</pitch>
				<duration>768</duration>
				<voice>1</voice>
				<type size='full'>quarter</type>
				<lyric number='1' name='verse' default-y='-80'>
					<syllabic>end</syllabic>
					<text>tis.</text>
				</lyric>
			</note>
		</measure>
<!--=========================================================-->
		<measure number='6'>
			<print new-system='yes'/>
			<attributes>
				<time>
					<beats>16</beats>
					<beat-type>4</beat-type>
				</time>
			</attributes>
			<note>
				<pitch>
					<step>A</step>
					<octave>2</octave>
				</pitch>
				<duration>768</duration>
				<voice>1</voice>
				<type size='full'>quarter</type>
				<lyric number='1' name='verse' default-y='-80'>
					<syllabic>single</syllabic>
					<text>An</text>
				</lyric>
			</note>
			<note>
				<pitch>
					<step>C</step>
					<octave>3</octave>
				</pitch>
				<duration>768</duration>
				<voice>1</voice>
				<type size='full'>quarter</type>
				<lyric number='1' name='verse' default-y='-80'>
					<syllabic>single</syllabic>
					<text>ge</text>
				</lyric>
			</note>
			<note>
				<pitch>
					<step>D</step>
					<octave>3</octave>
				</pitch>
				<duration>768</duration>
				<voice>1</voice>
				<type size='full'>quarter</type>
				<notations>
					<slur type='start' number='1'/>
				</notations>
				<lyric number='1' name='verse' default-y='-80'>
					<syllabic>begin</syllabic>
					<text>li</text>
					<extend/>
				</lyric>
			</note>
			<note>
				<pitch>
					<step>C</step>
					<octave>3</octave>
				</pitch>
				<duration>768</duration>
				<voice>1</voice>
				<type>quarter</type>
				<notations>
					<slur type='stop' number='1'/>
				</notations>
			</note>
			<note>
				<pitch>
					<step>F</step>
					<octave>3</octave>
				</pitch>
				<duration>768</duration>
				<voice>1</voice>
				<type size='full'>quarter</type>
				<lyric number='1' name='verse' default-y='-80'>
					<syllabic>end</syllabic>
					<text>cos</text>
				</lyric>
			</note>
			<note>
				<pitch>
					<step>G</step>
					<octave>3</octave>
				</pitch>
				<duration>768</duration>
				<voice>1</voice>
				<type size='full'>quarter</type>
				<notations>
					<slur type='start' number='1'/>
				</notations>
				<lyric number='1' name='verse' default-y='-80'>
					<syllabic>begin</syllabic>
					<text>tes</text>
					<extend/>
				</lyric>
			</note>
			<note>
				<pitch>
					<step>F</step>
					<octave>3</octave>
				</pitch>
				<duration>768</duration>
				<voice>1</voice>
				<type size='full'>quarter</type>
				<notations>
					<slur type='stop' number='1'/>
				</notations>
			</note>
			<note>
				<pitch>
					<step>E</step>
					<octave>3</octave>
				</pitch>
				<duration>768</duration>
				<voice>1</voice>
				<type size='full'>quarter</type>
				<notations>
					<slur type='start' number='1'/>
				</notations>
				<lyric number='1' name='verse' default-y='-80'>
					<syllabic>end</syllabic>
					<text>tes</text>
					<extend/>
				</lyric>
			</note>
			<note>
				<pitch>
					<step>D</step>
					<octave>3</octave>
				</pitch>
				<duration>768</duration>
				<voice>1</voice>
				<type size='full'>quarter</type>
				<notations>
					<slur type='stop' number='1'/>
				</notations>
			</note>
			<note>
				<pitch>
					<step>C</step>
					<octave>3</octave>
				</pitch>
				<duration>768</duration>
				<voice>1</voice>
				<type size='full'>quarter</type>
				<lyric number='1' name='verse' default-y='-80'>
					<syllabic>begin</syllabic>
					<text>su</text>
				</lyric>
			</note>
			<note>
				<pitch>
					<step>F</step>
					<octave>3</octave>
				</pitch>
				<duration>768</duration>
				<voice>1</voice>
				<type size='full'>quarter</type>
				<lyric number='1' name='verse' default-y='-80'>
					<syllabic>middle</syllabic>
					<text>da</text>
				</lyric>
			</note>
			<note>
				<pitch>
					<step>E</step>
					<octave>3</octave>
				</pitch>
				<duration>768</duration>
				<voice>1</voice>
				<type size='full'>quarter</type>
				<lyric number='1' name='verse' default-y='-80'>
					<syllabic>middle</syllabic>
					<text>ri</text>
				</lyric>
			</note>
			<note>
				<pitch>
					<step>D</step>
					<octave>3</octave>
				</pitch>
				<duration>768</duration>
				<voice>1</voice>
				<type size='full'>quarter</type>
				<lyric number='1' name='verse' default-y='-80'>
					<syllabic>end</syllabic>
					<text>um</text>
				</lyric>
			</note>
			<note>
				<pitch>
					<step>E</step>
					<octave>3</octave>
				</pitch>
				<duration>768</duration>
				<voice>1</voice>
				<type size='full'>quarter</type>
				<lyric number='1' name='verse' default-y='-80'>
					<syllabic>single</syllabic>
					<text>et</text>
				</lyric>
			</note>
			<note>
				<pitch>
					<step>C</step>
					<octave>3</octave>
				</pitch>
				<duration>768</duration>
				<voice>1</voice>
				<type size='full'>quarter</type>
				<lyric number='1' name='verse' default-y='-80'>
					<syllabic>begin</syllabic>
					<text>ue</text>
				</lyric>
			</note>
			<note>
				<pitch>
					<step>D</step>
					<octave>3</octave>
				</pitch>
				<duration>768</duration>
				<voice>1</voice>
				<type size='full'>quarter</type>
				<lyric number='1' name='verse' default-y='-80'>
					<syllabic>end</syllabic>
					<text>stes.</text>
				</lyric>
			</note>
		</measure>
<!--=========================================================-->
		<measure number='7'>
			<attributes>
				<time>
					<beats>20</beats>
					<beat-type>4</beat-type>
				</time>
			</attributes>
			<note>
				<pitch>
					<step>F</step>
					<octave>3</octave>
				</pitch>
				<duration>768</duration>
				<voice>1</voice>
				<type size='full'>quarter</type>
				<lyric number='1' name='verse' default-y='-80'>
					<syllabic>begin</syllabic>
					<text>Sur</text>
				</lyric>
			</note>
			<note>
				<pitch>
					<step>A</step>
					<octave>3</octave>
				</pitch>
				<duration>768</duration>
				<voice>1</voice>
				<type size='full'>quarter</type>
				<lyric number='1' name='verse' default-y='-80'>
					<syllabic>middle</syllabic>
					<text>rex</text>
				</lyric>
			</note>
			<note>
				<pitch>
					<step>G</step>
					<octave>3</octave>
				</pitch>
				<duration>768</duration>
				<voice>1</voice>
				<type size='full'>quarter</type>
				<lyric number='1' name='verse' default-y='-80'>
					<syllabic>end</syllabic>
					<text>it</text>
				</lyric>
			</note>
			<note>
				<pitch>
					<step>A</step>
					<octave>3</octave>
				</pitch>
				<duration>768</duration>
				<voice>1</voice>
				<type size='full'>quarter</type>
				<lyric number='1' name='verse' default-y='-80'>
					<syllabic>begin</syllabic>
					<text>Chri</text>
				</lyric>
			</note>
			<note>
				<pitch>
					<step>F</step>
					<octave>3</octave>
				</pitch>
				<duration>768</duration>
				<voice>1</voice>
				<type size='full'>quarter</type>
				<lyric number='1' name='verse' default-y='-80'>
					<syllabic>end</syllabic>
					<text>stus</text>
				</lyric>
			</note>
			<note>
				<pitch>
					<step>G</step>
					<octave>3</octave>
				</pitch>
				<duration>768</duration>
				<voice>1</voice>
				<type size='full'>quarter</type>
				<lyric number='1' name='verse' default-y='-80'>
					<syllabic>single</syllabic>
					<text>spes</text>
				</lyric>
			</note>
			<note>
				<pitch>
					<step>F</step>
					<octave>3</octave>
				</pitch>
				<duration>768</duration>
				<voice>1</voice>
				<type size='full'>quarter</type>
				<notations>
					<slur type='start' number='1'/>
				</notations>
				<lyric number='1' name='verse' default-y='-80'>
					<syllabic>begin</syllabic>
					<text>no</text>
					<extend/>
				</lyric>
			</note>
			<note>
				<pitch>
					<step>E</step>
					<octave>3</octave>
				</pitch>
				<duration>768</duration>
				<voice>1</voice>
				<type size='full'>quarter</type>
				<notations>
					<slur type='stop' number='1'/>
				</notations>
			</note>
			<note>
				<pitch>
					<step>D</step>
					<octave>3</octave>
				</pitch>
				<duration>768</duration>
				<voice>1</voice>
				<type size='full'>quarter</type>
				<lyric number='1' name='verse' default-y='-80'>
					<syllabic>end</syllabic>
					<text>stra</text>
				</lyric>
			</note>
			<note>
				<pitch>
					<step>C</step>
					<octave>3</octave>
				</pitch>
				<duration>768</duration>
				<voice>1</voice>
				<type size='full'>quarter</type>
				<lyric number='1' name='verse' default-y='-80'>
					<syllabic>begin</syllabic>
					<text>pre</text>
				</lyric>
			</note>
			<note>
				<pitch>
					<step>G</step>
					<octave>3</octave>
				</pitch>
				<duration>768</duration>
				<voice>1</voice>
				<type size='full'>quarter</type>
				<lyric number='1' name='verse' default-y='-80'>
					<syllabic>middle</syllabic>
					<text>ce</text>
				</lyric>
			</note>
			<note>
				<pitch>
					<step>F</step>
					<octave>3</octave>
				</pitch>
				<duration>768</duration>
				<voice>1</voice>
				<type size='full'>quarter</type>
				<lyric number='1' name='verse' default-y='-80'>
					<syllabic>end</syllabic>
					<text>det</text>
				</lyric>
			</note>
			<note>
				<pitch>
					<step>G</step>
					<octave>3</octave>
				</pitch>
				<duration>768</duration>
				<voice>1</voice>
				<type size='full'>quarter</type>
				<lyric number='1' name='verse' default-y='-80'>
					<syllabic>begin</syllabic>
					<text>su</text>
				</lyric>
			</note>
			<note>
				<pitch>
					<step>A</step>
					<octave>3</octave>
				</pitch>
				<duration>768</duration>
				<voice>1</voice>
				<type size='full'>quarter</type>
				<lyric number='1' name='verse' default-y='-80'>
					<syllabic>end</syllabic>
					<text>os</text>
				</lyric>
			</note>
			<note>
				<pitch>
					<step>A</step>
					<octave>3</octave>
				</pitch>
				<duration>768</duration>
				<voice>1</voice>
				<type size='full'>quarter</type>
				<lyric number='1' name='verse' default-y='-80'>
					<syllabic>single</syllabic>
					<text>in</text>
					<elision> </elision>
					<syllabic>single</syllabic>
					<text>in</text>
				</lyric>
			</note>
			<note>
				<pitch>
					<step>F</step>
					<octave>3</octave>
				</pitch>
				<duration>768</duration>
				<voice>1</voice>
				<type size='full'>quarter</type>
				<lyric number='1' name='verse' default-y='-80'>
					<syllabic>begin</syllabic>
					<text>ga</text>
				</lyric>
			</note>
			<note>
				<pitch>
					<step>G</step>
					<octave>3</octave>
				</pitch>
				<duration>768</duration>
				<voice>1</voice>
				<type size='full'>quarter</type>
				<lyric number='1' name='verse' default-y='-80'>
					<syllabic>middle</syllabic>
					<text>li</text>
				</lyric>
			</note>
			<note>
				<pitch>
					<step>F</step>
					<octave>3</octave>
				</pitch>
				<duration>768</duration>
				<voice>1</voice>
				<type size='full'>quarter</type>
				<notations>
					<slur type='start' number='1'/>
				</notations>
				<lyric number='1' name='verse' default-y='-80'>
					<syllabic>middle</syllabic>
					<text>le</text>
					<extend/>
				</lyric>
			</note>
			<note>
				<pitch>
					<step>E</step>
					<octave>3</octave>
				</pitch>
				<duration>768</duration>
				<voice>1</voice>
				<type size='full'>quarter</type>
				<notations>
					<slur type='stop' number='1'/>
				</notations>
			</note>
			<note>
				<pitch>
					<step>D</step>
					<octave>3</octave>
				</pitch>
				<duration>768</duration>
				<voice>1</voice>
				<type size='full'>quarter</type>
				<notations>
					<articulations>
						<breath-mark default-y='10'>comma</breath-mark>
					</articulations>
				</notations>
				<lyric number='1' name='verse' default-y='-80'>
					<syllabic>end</syllabic>
					<text>am.</text>
				</lyric>
			</note>
		</measure>
<!--=========================================================-->
		<measure number='8'>
			<print new-system='yes'/>
			<attributes>
				<time>
					<beats>24</beats>
					<beat-type>4</beat-type>
				</time>
			</attributes>
			<note>
				<pitch>
					<step>A</step>
					<octave>3</octave>
				</pitch>
				<duration>768</duration>
				<voice>1</voice>
				<type size='full'>quarter</type>
				<lyric number='1' name='verse' default-y='-80'>
					<syllabic>begin</syllabic>
					<text>Cre</text>
				</lyric>
			</note>
			<note>
				<pitch>
					<step>C</step>
					<octave>4</octave>
				</pitch>
				<duration>768</duration>
				<voice>1</voice>
				<type size='full'>quarter</type>
				<lyric number='1' name='verse' default-y='-80'>
					<syllabic>middle</syllabic>
					<text>den</text>
				</lyric>
			</note>
			<note>
				<pitch>
					<step>D</step>
					<octave>4</octave>
				</pitch>
				<duration>768</duration>
				<voice>1</voice>
				<type size='full'>quarter</type>
				<lyric number='1' name='verse' default-y='-80'>
					<syllabic>end</syllabic>
					<text>dum</text>
				</lyric>
			</note>
			<note>
				<pitch>
					<step>A</step>
					<octave>3</octave>
				</pitch>
				<duration>768</duration>
				<voice>1</voice>
				<type size='full'>quarter</type>
				<lyric number='1' name='verse' default-y='-80'>
					<syllabic>single</syllabic>
					<text>est</text>
				</lyric>
			</note>
			<note>
				<pitch>
					<step>G</step>
					<octave>3</octave>
				</pitch>
				<duration>768</duration>
				<voice>1</voice>
				<type size='full'>quarter</type>
				<lyric number='1' name='verse' default-y='-80'>
					<syllabic>begin</syllabic>
					<text>ma</text>
				</lyric>
			</note>
			<note>
				<pitch>
					<step>A</step>
					<octave>3</octave>
				</pitch>
				<duration>768</duration>
				<voice>1</voice>
				<type size='full'>quarter</type>
				<lyric number='1' name='verse' default-y='-80'>
					<syllabic>end</syllabic>
					<text>gis</text>
				</lyric>
			</note>
			<note>
				<pitch>
					<step>A</step>
					<octave>3</octave>
				</pitch>
				<duration>768</duration>
				<voice>1</voice>
				<type size='full'>quarter</type>
				<lyric number='1' name='verse' default-y='-80'>
					<syllabic>begin</syllabic>
					<text>so</text>
				</lyric>
			</note>
			<note>
				<pitch>
					<step>A</step>
					<octave>3</octave>
				</pitch>
				<duration>768</duration>
				<voice>1</voice>
				<type size='full'>quarter</type>
				<lyric number='1' name='verse' default-y='-80'>
					<syllabic>end</syllabic>
					<text>li</text>
				</lyric>
			</note>
			<note>
				<pitch>
					<step>A</step>
					<octave>3</octave>
				</pitch>
				<duration>768</duration>
				<voice>1</voice>
				<type size='full'>quarter</type>
				<lyric number='1' name='verse' default-y='-80'>
					<syllabic>begin</syllabic>
					<text>ma</text>
				</lyric>
			</note>
			<note>
				<pitch>
					<step>C</step>
					<octave>4</octave>
				</pitch>
				<duration>768</duration>
				<voice>1</voice>
				<type size='full'>quarter</type>
				<lyric number='1' name='verse' default-y='-80'>
					<syllabic>middle</syllabic>
					<text>ri</text>
				</lyric>
			</note>
			<note>
				<pitch>
					<step>G</step>
					<octave>3</octave>
				</pitch>
				<duration>768</duration>
				<voice>1</voice>
				<type size='full'>quarter</type>
				<lyric number='1' name='verse' default-y='-80'>
					<syllabic>end</syllabic>
					<text>e</text>
				</lyric>
			</note>
			<note>
				<pitch>
					<step>F</step>
					<octave>3</octave>
				</pitch>
				<duration>768</duration>
				<voice>1</voice>
				<type size='full'>quarter</type>
				<lyric number='1' name='verse' default-y='-80'>
					<syllabic>begin</syllabic>
					<text>ue</text>
				</lyric>
			</note>
			<note>
				<pitch>
					<step>E</step>
					<octave>3</octave>
				</pitch>
				<duration>768</duration>
				<voice>1</voice>
				<type size='full'>quarter</type>
				<lyric number='1' name='verse' default-y='-80'>
					<syllabic>middle</syllabic>
					<text>ra</text>
				</lyric>
			</note>
			<note>
				<pitch>
					<step>D</step>
					<octave>3</octave>
				</pitch>
				<duration>768</duration>
				<voice>1</voice>
				<type size='full'>quarter</type>
				<lyric number='1' name='verse' default-y='-80'>
					<syllabic>end</syllabic>
					<text>ri</text>
				</lyric>
			</note>
			<note>
				<pitch>
					<step>C</step>
					<octave>3</octave>
				</pitch>
				<duration>768</duration>
				<voice>1</voice>
				<type size='full'>quarter</type>
				<lyric number='1' name='verse' default-y='-80'>
					<syllabic>single</syllabic>
					<text>quem</text>
				</lyric>
			</note>
			<note>
				<pitch>
					<step>E</step>
					<octave>3</octave>
				</pitch>
				<duration>768</duration>
				<voice>1</voice>
				<type size='full'>quarter</type>
				<lyric number='1' name='verse' default-y='-80'>
					<syllabic>begin</syllabic>
					<text>iu</text>
				</lyric>
			</note>
			<note>
				<pitch>
					<step>D</step>
					<octave>3</octave>
				</pitch>
				<duration>768</duration>
				<voice>1</voice>
				<type size='full'>quarter</type>
				<lyric number='1' name='verse' default-y='-80'>
					<syllabic>middle</syllabic>
					<text>de</text>
				</lyric>
			</note>
			<note>
				<pitch>
					<step>G</step>
					<octave>3</octave>
				</pitch>
				<duration>768</duration>
				<voice>1</voice>
				<type size='full'>quarter</type>
				<lyric number='1' name='verse' default-y='-80'>
					<syllabic>middle</syllabic>
					<text>o</text>
				</lyric>
			</note>
			<note>
				<pitch>
					<step>A</step>
					<octave>3</octave>
				</pitch>
				<duration>768</duration>
				<voice>1</voice>
				<type size='full'>quarter</type>
				<lyric number='1' name='verse' default-y='-80'>
					<syllabic>end</syllabic>
					<text>rum</text>
				</lyric>
			</note>
			<note>
				<pitch>
					<step>A</step>
					<octave>3</octave>
				</pitch>
				<duration>768</duration>
				<voice>1</voice>
				<type size='full'>quarter</type>
				<lyric number='1' name='verse' default-y='-80'>
					<syllabic>begin</syllabic>
					<text>tur</text>
				</lyric>
			</note>
			<note>
				<pitch>
					<step>G</step>
					<octave>3</octave>
				</pitch>
				<duration>768</duration>
				<voice>1</voice>
				<type size='full'>quarter</type>
				<lyric number='1' name='verse' default-y='-80'>
					<syllabic>end</syllabic>
					<text>be</text>
				</lyric>
			</note>
			<note>
				<pitch>
					<step>F</step>
					<octave>3</octave>
				</pitch>
				<duration>768</duration>
				<voice>1</voice>
				<type size='full'>quarter</type>
				<lyric number='1' name='verse' default-y='-80'>
					<syllabic>begin</syllabic>
					<text>fal</text>
				</lyric>
			</note>
			<note>
				<pitch>
					<step>E</step>
					<octave>3</octave>
				</pitch>
				<duration>768</duration>
				<voice>1</voice>
				<type size='full'>quarter</type>
				<lyric number='1' name='verse' default-y='-80'>
					<syllabic>middle</syllabic>
					<text>la</text>
				</lyric>
			</note>
			<note>
				<pitch>
					<step>D</step>
					<octave>3</octave>
				</pitch>
				<duration>768</duration>
				<voice>1</voice>
				<type size='full'>quarter</type>
				<lyric number='1' name='verse' default-y='-80'>
					<syllabic>end</syllabic>
					<text>ci.</text>
				</lyric>
			</note>
		</measure>
<!--=========================================================-->
		<measure number='9'>
			<note>
				<pitch>
					<step>A</step>
					<octave>3</octave>
				</pitch>
				<duration>768</duration>
				<voice>1</voice>
				<type size='full'>quarter</type>
				<lyric number='1' name='verse' default-y='-80'>
					<syllabic>begin</syllabic>
					<text>Sci</text>
				</lyric>
			</note>
			<note>
				<pitch>
					<step>C</step>
					<octave>4</octave>
				</pitch>
				<duration>768</duration>
				<voice>1</voice>
				<type size='full'>quarter</type>
				<lyric number='1' name='verse' default-y='-80'>
					<syllabic>end</syllabic>
					<text>mus</text>
				</lyric>
			</note>
			<note>
				<pitch>
					<step>D</step>
					<octave>4</octave>
				</pitch>
				<duration>768</duration>
				<voice>1</voice>
				<type size='full'>quarter</type>
				<lyric number='1' name='verse' default-y='-80'>
					<syllabic>begin</syllabic>
					<text>Chri</text>
				</lyric>
			</note>
			<note>
				<pitch>
					<step>A</step>
					<octave>3</octave>
				</pitch>
				<duration>768</duration>
				<voice>1</voice>
				<type size='full'>quarter</type>
				<lyric number='1' name='verse' default-y='-80'>
					<syllabic>end</syllabic>
					<text>stum</text>
				</lyric>
			</note>
			<note>
				<pitch>
					<step>A</step>
					<octave>3</octave>
				</pitch>
				<duration>768</duration>
				<voice>1</voice>
				<type size='full'>quarter</type>
				<lyric number='1' name='verse' default-y='-80'>
					<syllabic>begin</syllabic>
					<text>sur</text>
				</lyric>
			</note>
			<note>
				<pitch>
					<step>G</step>
					<octave>3</octave>
				</pitch>
				<duration>768</duration>
				<voice>1</voice>
				<type size='full'>quarter</type>
				<lyric number='1' name='verse' default-y='-80'>
					<syllabic>middle</syllabic>
					<text>re</text>
				</lyric>
			</note>
			<note>
				<pitch>
					<step>A</step>
					<octave>3</octave>
				</pitch>
				<duration>768</duration>
				<voice>1</voice>
				<type size='full'>quarter</type>
				<lyric number='1' name='verse' default-y='-80'>
					<syllabic>middle</syllabic>
					<text>xis</text>
				</lyric>
			</note>
			<note>
				<pitch>
					<step>A</step>
					<octave>3</octave>
				</pitch>
				<duration>768</duration>
				<voice>1</voice>
				<type size='full'>quarter</type>
				<lyric number='1' name='verse' default-y='-80'>
					<syllabic>end</syllabic>
					<text>se</text>
				</lyric>
			</note>
			<note>
				<pitch>
					<step>A</step>
					<octave>3</octave>
				</pitch>
				<duration>768</duration>
				<voice>1</voice>
				<type size='full'>quarter</type>
				<lyric number='1' name='verse' default-y='-80'>
					<syllabic>single</syllabic>
					<text>a</text>
				</lyric>
			</note>
			<note>
				<pitch>
					<step>C</step>
					<octave>4</octave>
				</pitch>
				<duration>768</duration>
				<voice>1</voice>
				<type size='full'>quarter</type>
				<lyric number='1' name='verse' default-y='-80'>
					<syllabic>begin</syllabic>
					<text>mor</text>
				</lyric>
			</note>
			<note>
				<pitch>
					<step>G</step>
					<octave>3</octave>
				</pitch>
				<duration>768</duration>
				<voice>1</voice>
				<type size='full'>quarter</type>
				<lyric number='1' name='verse' default-y='-80'>
					<syllabic>middle</syllabic>
					<text>tu</text>
				</lyric>
			</note>
			<note>
				<pitch>
					<step>F</step>
					<octave>3</octave>
				</pitch>
				<duration>768</duration>
				<voice>1</voice>
				<type size='full'>quarter</type>
				<lyric number='1' name='verse' default-y='-80'>
					<syllabic>end</syllabic>
					<text>is</text>
				</lyric>
			</note>
			<note>
				<pitch>
					<step>E</step>
					<octave>3</octave>
				</pitch>
				<duration>768</duration>
				<voice>1</voice>
				<type size='full'>quarter</type>
				<lyric number='1' name='verse' default-y='-80'>
					<syllabic>begin</syllabic>
					<text>ue</text>
				</lyric>
			</note>
			<note>
				<pitch>
					<step>D</step>
					<octave>3</octave>
				</pitch>
				<duration>768</duration>
				<voice>1</voice>
				<type size='full'>quarter</type>
				<lyric number='1' name='verse' default-y='-80'>
					<syllabic>end</syllabic>
					<text>re</text>
				</lyric>
			</note>
			<note>
				<pitch>
					<step>C</step>
					<octave>3</octave>
				</pitch>
				<duration>768</duration>
				<voice>1</voice>
				<type size='full'>quarter</type>
				<lyric number='1' name='verse' default-y='-80'>
					<syllabic>single</syllabic>
					<text>tu</text>
				</lyric>
			</note>
			<note>
				<pitch>
					<step>E</step>
					<octave>3</octave>
				</pitch>
				<duration>768</duration>
				<voice>1</voice>
				<type size='full'>quarter</type>
				<lyric number='1' name='verse' default-y='-80'>
					<syllabic>begin</syllabic>
					<text>no</text>
				</lyric>
			</note>
			<note>
				<pitch>
					<step>D</step>
					<octave>3</octave>
				</pitch>
				<duration>768</duration>
				<voice>1</voice>
				<type size='full'>quarter</type>
				<lyric number='1' name='verse' default-y='-80'>
					<syllabic>end</syllabic>
					<text>bis</text>
				</lyric>
			</note>
			<note>
				<pitch>
					<step>G</step>
					<octave>3</octave>
				</pitch>
				<duration>768</duration>
				<voice>1</voice>
				<type size='full'>quarter</type>
				<lyric number='1' name='verse' default-y='-80'>
					<syllabic>begin</syllabic>
					<text>uic</text>
				</lyric>
			</note>
			<note>
				<pitch>
					<step>A</step>
					<octave>3</octave>
				</pitch>
				<duration>768</duration>
				<voice>1</voice>
				<type size='full'>quarter</type>
				<lyric number='1' name='verse' default-y='-80'>
					<syllabic>end</syllabic>
					<text>tor</text>
				</lyric>
			</note>
			<note>
				<pitch>
					<step>A</step>
					<octave>3</octave>
				</pitch>
				<duration>768</duration>
				<voice>1</voice>
				<type size='full'>quarter</type>
				<lyric number='1' name='verse' default-y='-80'>
					<syllabic>single</syllabic>
					<text>rex</text>
				</lyric>
			</note>
			<note>
				<pitch>
					<step>G</step>
					<octave>3</octave>
				</pitch>
				<duration>768</duration>
				<voice>1</voice>
				<type size='full'>quarter</type>
				<lyric number='1' name='verse' default-y='-80'>
					<syllabic>begin</syllabic>
					<text>mi</text>
				</lyric>
			</note>
			<note>
				<pitch>
					<step>F</step>
					<octave>3</octave>
				</pitch>
				<duration>768</duration>
				<voice>1</voice>
				<type size='full'>quarter</type>
				<lyric number='1' name='verse' default-y='-80'>
					<syllabic>middle</syllabic>
					<text>se</text>
				</lyric>
			</note>
			<note>
				<pitch>
					<step>E</step>
					<octave>3</octave>
				</pitch>
				<duration>768</duration>
				<voice>1</voice>
				<type size='full'>quarter</type>
				<lyric number='1' name='verse' default-y='-80'>
					<syllabic>middle</syllabic>
					<text>re</text>
				</lyric>
			</note>
			<note>
				<pitch>
					<step>D</step>
					<octave>3</octave>
				</pitch>
				<duration>768</duration>
				<voice>1</voice>
				<type size='full'>quarter</type>
				<lyric number='1' name='verse' default-y='-80'>
					<syllabic>end</syllabic>
					<text>re.</text>
				</lyric>
			</note>
			<barline location='right'>
				<bar-style>light-heavy</bar-style>
			</barline>
		</measure>
	</part>
<!--=========================================================-->
</score-partwise>
